<?xml version="1.0" standalone="no"?>
<!DOCTYPE svg PUBLIC "-//W3C//DTD SVG 20010904//EN"
 "http://www.w3.org/TR/2001/REC-SVG-20010904/DTD/svg10.dtd">
<svg version="1.0" xmlns="http://www.w3.org/2000/svg"
 width="500.000000pt" height="500.000000pt" viewBox="0 0 500.000000 500.000000"
 preserveAspectRatio="xMidYMid meet">
<metadata>
Created by potrace 1.14, written by Peter Selinger 2001-2017
</metadata>
<g transform="translate(0.000000,500.000000) scale(0.100000,-0.100000)"
fill="#000000" stroke="none">
<path d="M1680 4729 c0 -3 -26 -7 -57 -8 -120 -3 -158 -6 -163 -13 -3 -4 -24
-10 -45 -12 -55 -7 -68 -10 -85 -21 -8 -5 -19 -10 -25 -10 -23 -2 -65 -18 -65
-24 0 -7 -71 -33 -95 -35 -5 -1 -15 -8 -22 -16 -6 -8 -15 -15 -20 -16 -20 -2
-93 -37 -93 -45 0 -13 -37 -48 -44 -41 -3 3 -17 -4 -29 -16 -13 -12 -26 -20
-29 -16 -4 3 -15 -7 -24 -23 -10 -15 -42 -50 -71 -78 -29 -27 -53 -55 -53 -62
0 -6 -9 -15 -20 -18 -11 -3 -20 -12 -20 -19 0 -7 -11 -25 -25 -40 -14 -15 -25
-32 -25 -39 0 -7 -9 -23 -20 -37 -11 -14 -20 -31 -20 -37 0 -7 -4 -13 -9 -13
-5 0 -15 -15 -22 -32 -6 -18 -13 -35 -14 -38 -2 -3 -6 -15 -10 -27 -4 -13 -12
-23 -17 -23 -6 0 -8 -6 -5 -14 3 -8 2 -16 -3 -18 -5 -2 -11 -16 -14 -33 -2
-16 -5 -30 -6 -30 -2 0 -3 -13 -4 -28 -1 -16 -7 -32 -14 -36 -7 -4 -12 -12
-11 -17 1 -5 0 -11 -1 -14 -4 -7 -10 -68 -13 -130 -2 -31 -5 -60 -9 -65 -7
-13 -5 -277 3 -290 3 -5 4 -27 3 -48 -1 -20 2 -39 6 -42 4 -2 6 -23 4 -45 -2
-22 1 -40 6 -40 5 0 7 -6 4 -14 -3 -7 1 -20 8 -27 7 -8 13 -25 13 -39 -1 -14
3 -34 9 -45 12 -23 13 -28 15 -56 0 -11 5 -17 11 -14 5 3 10 -3 10 -14 0 -11
5 -23 10 -26 6 -3 10 -14 10 -24 0 -18 77 -143 92 -149 4 -2 8 -11 8 -21 0
-18 49 -78 146 -175 33 -33 63 -66 65 -72 4 -10 70 -51 126 -78 13 -6 23 -16
23 -23 0 -12 84 -55 98 -50 4 1 23 -8 43 -20 20 -13 44 -24 55 -26 10 -1 25
-6 32 -10 6 -5 16 -6 21 -3 5 3 14 -1 21 -10 7 -8 19 -13 26 -10 7 3 16 1 19
-5 4 -5 17 -7 30 -5 15 3 26 -1 29 -10 3 -9 10 -13 15 -9 5 3 12 1 15 -4 4 -5
27 -8 51 -6 25 2 45 0 45 -4 0 -3 422 -7 938 -8 515 -1 964 -5 997 -8 33 -3
68 -7 78 -8 9 0 17 -4 17 -8 0 -4 8 -6 18 -4 9 1 22 0 27 -4 6 -3 15 -6 20 -6
6 0 10 -6 10 -13 0 -12 61 -55 97 -68 9 -3 21 -19 27 -35 5 -16 15 -29 20 -29
6 0 11 -9 11 -19 0 -10 7 -21 14 -24 8 -3 20 -25 27 -49 16 -54 15 -50 22 -68
28 -65 27 -311 -1 -329 -6 -3 -14 -22 -17 -40 -8 -46 -22 -71 -67 -121 -9 -10
-14 -21 -11 -23 6 -7 -95 -81 -114 -83 -8 -2 -22 -6 -31 -10 -17 -7 -27 -10
-49 -12 -7 -1 -12 -8 -10 -14 1 -7 -7 -13 -18 -13 -11 0 -24 -2 -30 -5 -5 -3
-683 -5 -1505 -5 -822 1 -1500 0 -1505 -2 -8 -2 -11 -128 -10 -386 l0 -382
1545 2 c850 1 1561 4 1580 8 19 3 49 8 65 10 65 11 80 13 85 15 3 1 8 2 13 1
4 0 7 3 7 8 0 5 8 8 18 7 9 -2 20 1 23 6 3 5 16 11 30 13 13 3 25 9 27 14 2 5
12 7 22 4 14 -4 20 0 20 11 0 9 3 15 8 15 22 -4 42 4 67 25 16 14 32 23 37 20
4 -3 8 0 8 6 0 6 5 8 10 5 6 -3 10 -1 10 5 0 6 4 8 10 5 14 -9 57 23 64 48 3
11 8 18 12 14 4 -4 16 0 26 10 10 9 18 12 18 7 0 -10 70 67 70 77 0 4 10 9 23
13 13 3 39 28 58 56 19 27 37 50 42 50 4 0 7 5 7 11 0 7 11 22 25 35 13 12 27
35 31 51 4 15 13 35 21 45 8 9 16 24 17 33 1 9 8 20 15 24 6 4 13 18 14 29 1
12 8 22 15 22 9 0 13 7 9 20 -3 10 1 24 8 30 8 6 12 20 10 30 -2 11 1 22 6 25
5 4 7 11 4 16 -4 5 -1 9 5 9 7 0 10 6 7 14 -3 8 -3 17 1 21 4 4 8 21 10 38 1
18 3 42 4 55 1 12 5 22 9 22 3 0 5 11 4 24 -2 14 2 27 9 29 8 3 11 34 11 92
-1 56 3 89 11 92 13 5 11 77 -3 95 -5 7 -9 49 -8 93 0 44 -3 86 -9 94 -11 14
-14 25 -22 81 -8 53 -12 75 -14 75 -1 0 -4 11 -7 25 -7 38 -8 40 -30 98 -3 9
-7 24 -7 32 0 8 -8 23 -18 34 -9 10 -14 25 -11 32 4 10 0 12 -13 7 -12 -4 -15
-3 -10 5 4 7 2 12 -4 12 -6 0 -9 4 -6 9 3 5 -1 14 -9 21 -7 6 -11 18 -8 26 3
8 0 14 -7 14 -6 0 -8 5 -5 10 4 6 -9 26 -29 44 -19 19 -32 37 -29 40 3 3 -8
17 -26 31 -17 15 -30 29 -29 33 4 13 -27 52 -40 52 -7 0 -32 20 -54 45 -22 24
-45 42 -49 39 -5 -3 -13 5 -18 18 -5 13 -24 30 -45 38 -20 7 -36 17 -36 22 0
4 -6 8 -14 8 -8 0 -21 7 -29 15 -8 8 -21 16 -28 17 -8 2 -22 12 -31 22 -10 10
-18 16 -18 11 0 -4 -6 -2 -13 4 -8 6 -24 12 -36 14 -12 2 -30 10 -39 18 -10 8
-26 16 -37 17 -11 2 -24 7 -30 12 -5 4 -18 6 -27 5 -10 -2 -18 1 -18 7 0 5 -9
7 -19 3 -11 -3 -22 -1 -25 4 -4 6 -13 8 -20 5 -7 -3 -20 1 -27 8 -8 7 -21 13
-29 13 -8 -1 -21 3 -28 9 -14 10 -52 16 -147 20 -33 2 -60 5 -60 6 0 1 -423 4
-940 6 -517 2 -946 4 -952 5 -7 1 -13 6 -13 10 0 4 -8 6 -17 4 -28 -4 -90 32
-96 55 -3 11 -9 20 -14 19 -20 -5 -62 22 -68 43 -4 13 -18 38 -32 56 -13 17
-21 32 -17 32 4 0 -2 10 -14 23 -12 13 -19 27 -15 30 3 4 2 7 -3 7 -10 0 -12
14 -16 117 -2 29 -5 53 -8 53 -3 0 -6 11 -6 25 -1 14 1 25 6 25 4 0 6 25 5 56
-1 30 2 57 6 60 4 2 6 13 4 24 -2 11 1 22 6 25 5 4 7 11 4 16 -4 5 1 12 10 15
9 4 14 12 11 20 -5 14 17 37 27 29 4 -3 5 -2 3 1 -7 9 35 85 50 91 7 3 16 13
19 23 3 11 32 32 63 47 31 15 59 30 62 33 3 3 19 6 35 7 55 5 60 6 66 16 5 6
476 10 1338 10 l1331 0 0 393 c0 368 -1 394 -17 395 -147 4 -2573 2 -2573 -2z"/>
</g>
</svg>
